{
	"asset":{
		"generator":"Khronos glTF Blender I/O v4.1.63",
		"version":"2.0"
	},
	"scene":0,
	"scenes":[
		{
			"name":"Scene",
			"nodes":[
				0,
				1
			]
		}
	],
	"nodes":[
		{
			"mesh":0,
			"name":"Sphere.001",
			"translation":[
				0,
				2.2159082889556885,
				0
			]
		},
		{
			"mesh":1,
			"name":"Sphere",
			"translation":[
				0,
				2.2159082889556885,
				0
			]
		}
	],
	"materials":[
		{
			"doubleSided":true,
			"name":"orange",
			"pbrMetallicRoughness":{
				"baseColorFactor":[
					0.8000074625015259,
					0.26632794737815857,
					0.02756374701857567,
					1
				],
				"metallicFactor":0,
				"roughnessFactor":0
			}
		},
		{
			"doubleSided":true,
			"name":"brown_top",
			"pbrMetallicRoughness":{
				"baseColorFactor":[
					0.1584652066230774,
					0.045207519084215164,
					0.0070681143552064896,
					1
				],
				"metallicFactor":0,
				"roughnessFactor":0
			}
		}
	],
	"meshes":[
		{
			"name":"Sphere.001",
			"primitives":[
				{
					"attributes":{
						"POSITION":0,
						"NORMAL":1
					},
					"indices":2,
					"material":0
				}
			]
		},
		{
			"name":"Sphere",
			"primitives":[
				{
					"attributes":{
						"POSITION":3,
						"NORMAL":4
					},
					"indices":5,
					"material":0
				},
				{
					"attributes":{
						"POSITION":6,
						"NORMAL":7
					},
					"indices":8,
					"material":1
				}
			]
		}
	],
	"accessors":[
		{
			"bufferView":0,
			"componentType":5126,
			"count":3943,
			"max":[
				2.855243682861328,
				1.7296968698501587,
				2.861509084701538
			],
			"min":[
				-2.855243444442749,
				-2.2384305000305176,
				-2.85524320602417
			],
			"type":"VEC3"
		},
		{
			"bufferView":1,
			"componentType":5126,
			"count":3943,
			"type":"VEC3"
		},
		{
			"bufferView":2,
			"componentType":5123,
			"count":23694,
			"type":"SCALAR"
		},
		{
			"bufferView":3,
			"componentType":5126,
			"count":2816,
			"max":[
				1.6025596857070923,
				2.0083441734313965,
				1.6042953729629517
			],
			"min":[
				-1.6060316562652588,
				1.6812877655029297,
				-1.6042954921722412
			],
			"type":"VEC3"
		},
		{
			"bufferView":4,
			"componentType":5126,
			"count":2816,
			"type":"VEC3"
		},
		{
			"bufferView":5,
			"componentType":5123,
			"count":15360,
			"type":"SCALAR"
		},
		{
			"bufferView":6,
			"componentType":5126,
			"count":2561,
			"max":[
				0.4692511558532715,
				3.322411060333252,
				0.24243192374706268
			],
			"min":[
				-0.2441679835319519,
				1.998284101486206,
				-0.24243241548538208
			],
			"type":"VEC3"
		},
		{
			"bufferView":7,
			"componentType":5126,
			"count":2561,
			"type":"VEC3"
		},
		{
			"bufferView":8,
			"componentType":5123,
			"count":14592,
			"type":"SCALAR"
		}
	],
	"bufferViews":[
		{
			"buffer":0,
			"byteLength":47316,
			"byteOffset":0,
			"target":34962
		},
		{
			"buffer":0,
			"byteLength":47316,
			"byteOffset":47316,
			"target":34962
		},
		{
			"buffer":0,
			"byteLength":47388,
			"byteOffset":94632,
			"target":34963
		},
		{
			"buffer":0,
			"byteLength":33792,
			"byteOffset":142020,
			"target":34962
		},
		{
			"buffer":0,
			"byteLength":33792,
			"byteOffset":175812,
			"target":34962
		},
		{
			"buffer":0,
			"byteLength":30720,
			"byteOffset":209604,
			"target":34963
		},
		{
			"buffer":0,
			"byteLength":30732,
			"byteOffset":240324,
			"target":34962
		},
		{
			"buffer":0,
			"byteLength":30732,
			"byteOffset":271056,
			"target":34962
		},
		{
			"buffer":0,
			"byteLength":29184,
			"byteOffset":301788,
			"target":34963
		}
	],
	"buffers":[
		{
			"byteLength":330972,
			"uri":"pumpkin.bin"
		}
	]
}
